<svg width="36" height="35" viewBox="0 0 36 35" fill="none" xmlns="http://www.w3.org/2000/svg">
<path d="M25.2917 2.91675H10.7084C6.68134 2.91675 3.41675 6.18134 3.41675 10.2084V24.7917C3.41675 28.8188 6.68134 32.0834 10.7084 32.0834H25.2917C29.3188 32.0834 32.5834 28.8188 32.5834 24.7917V10.2084C32.5834 6.18134 29.3188 2.91675 25.2917 2.91675Z" stroke="#4731D3" stroke-width="3" stroke-linecap="round" stroke-linejoin="round"/>
<path d="M23.8333 16.5812C24.0133 17.7949 23.806 19.0344 23.2409 20.1235C22.6758 21.2126 21.7817 22.0958 20.6857 22.6474C19.5897 23.199 18.3477 23.391 17.1363 23.1961C15.925 23.0012 14.8059 22.4292 13.9383 21.5616C13.0707 20.6941 12.4988 19.575 12.3038 18.3636C12.1089 17.1522 12.3009 15.9102 12.8525 14.8142C13.4042 13.7183 14.2873 12.8242 15.3764 12.2591C16.4655 11.694 17.705 11.4866 18.9187 11.6666C20.1567 11.8502 21.3029 12.4271 22.1879 13.3121C23.0728 14.197 23.6497 15.3432 23.8333 16.5812Z" stroke="#4731D3" stroke-width="3" stroke-linecap="round" stroke-linejoin="round"/>
<path d="M26.0208 9.47925H26.0353" stroke="#4731D3" stroke-width="3" stroke-linecap="round" stroke-linejoin="round"/>
</svg>
