<svg width="36" height="31" viewBox="0 0 36 31" fill="none" xmlns="http://www.w3.org/2000/svg">
<path d="M34.0416 2.37502C32.6451 3.36009 31.0988 4.11351 29.4624 4.60627C28.5841 3.59639 27.4169 2.88061 26.1185 2.55574C24.8202 2.23087 23.4533 2.31259 22.203 2.78984C20.9526 3.26709 19.8789 4.11685 19.1272 5.22419C18.3755 6.33152 17.982 7.64301 17.9999 8.98127V10.4396C15.4371 10.5061 12.8976 9.93766 10.6076 8.78504C8.31767 7.63242 6.3483 5.93136 4.87492 3.83335C4.87492 3.83335 -0.958415 16.9583 12.1666 22.7917C9.16319 24.8304 5.58536 25.8526 1.95825 25.7083C15.0833 33 31.1249 25.7083 31.1249 8.93752C31.1236 8.5313 31.0845 8.12609 31.0083 7.7271C32.4966 6.25928 33.547 4.40606 34.0416 2.37502V2.37502Z" stroke="#4731D3" stroke-width="3" stroke-linecap="round" stroke-linejoin="round"/>
</svg>
